<svg id="eBjVu4Kxop61" xmlns="http://www.w3.org/2000/svg" xmlns:xlink="http://www.w3.org/1999/xlink" viewBox="0 0 460 785.6" shape-rendering="geometricPrecision" text-rendering="geometricPrecision">
<style><![CDATA[
#eBjVu4Kxop629_tr {animation: eBjVu4Kxop629_tr__tr 3000ms linear infinite normal forwards}@keyframes eBjVu4Kxop629_tr__tr { 0% {transform: translate(361.108185px,431.414917px) rotate(0deg)} 23.333333% {transform: translate(361.108185px,431.414917px) rotate(6.875303deg)} 50% {transform: translate(361.108185px,431.414917px) rotate(6.875303deg)} 80% {transform: translate(361.108185px,431.414917px) rotate(0deg)} 100% {transform: translate(361.108185px,431.414917px) rotate(0deg)}} #eBjVu4Kxop643_to {animation: eBjVu4Kxop643_to__to 3000ms linear infinite normal forwards}@keyframes eBjVu4Kxop643_to__to { 0% {transform: translate(389.699997px,368.224808px)} 23.333333% {transform: translate(397.70964px,368.224808px)} 50% {transform: translate(397.70964px,368.224808px)} 80% {transform: translate(389.699997px,368.224808px)} 100% {transform: translate(389.699997px,368.224808px)}} #eBjVu4Kxop654_to {animation: eBjVu4Kxop654_to__to 3000ms linear infinite normal forwards}@keyframes eBjVu4Kxop654_to__to { 0% {transform: translate(312.800003px,344.044449px)} 23.333333% {transform: translate(322.234772px,344.044449px)} 50% {transform: translate(322.234772px,344.044449px)} 80% {transform: translate(312.800003px,344.044449px)} 100% {transform: translate(312.800003px,344.044449px)}} #eBjVu4Kxop685_tr {animation: eBjVu4Kxop685_tr__tr 3000ms linear infinite normal forwards}@keyframes eBjVu4Kxop685_tr__tr { 0% {transform: translate(369.765778px,574.4px) rotate(0deg)} 23.333333% {transform: translate(369.765778px,574.4px) rotate(10.87399deg)} 56.666667% {transform: translate(369.765778px,574.4px) rotate(10.87399deg)} 80% {transform: translate(369.765778px,574.4px) rotate(0deg)} 100% {transform: translate(369.765778px,574.4px) rotate(0deg)}}
]]></style>
<defs><linearGradient id="eBjVu4Kxop68-fill" x1="215.116539" y1="477.721283" x2="357.514199" y2="550.278564" spreadMethod="pad" gradientUnits="userSpaceOnUse" gradientTransform="translate(0 0)"><stop id="eBjVu4Kxop68-fill-0" offset="38.22%" stop-color="#eb2a2b"/><stop id="eBjVu4Kxop68-fill-1" offset="47.58%" stop-color="#e72b2c"/><stop id="eBjVu4Kxop68-fill-2" offset="57.65%" stop-color="#da2e2f"/><stop id="eBjVu4Kxop68-fill-3" offset="68.05%" stop-color="#c43435"/><stop id="eBjVu4Kxop68-fill-4" offset="78.69%" stop-color="#a63c3d"/><stop id="eBjVu4Kxop68-fill-5" offset="89.39%" stop-color="#804546"/><stop id="eBjVu4Kxop68-fill-6" offset="100%" stop-color="#525152"/></linearGradient><linearGradient id="eBjVu4Kxop610-fill" x1="331.036382" y1="592.75356" x2="210.31301" y2="531.240192" spreadMethod="pad" gradientUnits="userSpaceOnUse" gradientTransform="translate(0 0)"><stop id="eBjVu4Kxop610-fill-0" offset="38.22%" stop-color="#040000"/><stop id="eBjVu4Kxop610-fill-1" offset="51.25%" stop-color="#080404"/><stop id="eBjVu4Kxop610-fill-2" offset="65.26%" stop-color="#141111"/><stop id="eBjVu4Kxop610-fill-3" offset="79.74%" stop-color="#292627"/><stop id="eBjVu4Kxop610-fill-4" offset="94.45%" stop-color="#454445"/><stop id="eBjVu4Kxop610-fill-5" offset="100%" stop-color="#525152"/></linearGradient><linearGradient id="eBjVu4Kxop611-fill" x1="353.92797" y1="569.639166" x2="215.480559" y2="499.094693" spreadMethod="pad" gradientUnits="userSpaceOnUse" gradientTransform="translate(0 0)"><stop id="eBjVu4Kxop611-fill-0" offset="38.22%" stop-color="#040000"/><stop id="eBjVu4Kxop611-fill-1" offset="51.25%" stop-color="#080404"/><stop id="eBjVu4Kxop611-fill-2" offset="65.26%" stop-color="#141111"/><stop id="eBjVu4Kxop611-fill-3" offset="79.74%" stop-color="#292627"/><stop id="eBjVu4Kxop611-fill-4" offset="94.45%" stop-color="#454445"/><stop id="eBjVu4Kxop611-fill-5" offset="100%" stop-color="#525152"/></linearGradient><linearGradient id="eBjVu4Kxop612-fill" x1="374.588729" y1="544.045429" x2="223.957962" y2="467.293052" spreadMethod="pad" gradientUnits="userSpaceOnUse" gradientTransform="translate(0 0)"><stop id="eBjVu4Kxop612-fill-0" offset="38.22%" stop-color="#040000"/><stop id="eBjVu4Kxop612-fill-1" offset="51.25%" stop-color="#080404"/><stop id="eBjVu4Kxop612-fill-2" offset="65.26%" stop-color="#141111"/><stop id="eBjVu4Kxop612-fill-3" offset="79.74%" stop-color="#292627"/><stop id="eBjVu4Kxop612-fill-4" offset="94.45%" stop-color="#454445"/><stop id="eBjVu4Kxop612-fill-5" offset="100%" stop-color="#525152"/></linearGradient><linearGradient id="eBjVu4Kxop614-fill" x1="389.540969" y1="516.356777" x2="237.519885" y2="438.895978" spreadMethod="pad" gradientUnits="userSpaceOnUse" gradientTransform="translate(0 0)"><stop id="eBjVu4Kxop614-fill-0" offset="38.22%" stop-color="#040000"/><stop id="eBjVu4Kxop614-fill-1" offset="51.25%" stop-color="#080404"/><stop id="eBjVu4Kxop614-fill-2" offset="65.26%" stop-color="#141111"/><stop id="eBjVu4Kxop614-fill-3" offset="79.74%" stop-color="#292627"/><stop id="eBjVu4Kxop614-fill-4" offset="94.45%" stop-color="#454445"/><stop id="eBjVu4Kxop614-fill-5" offset="100%" stop-color="#525152"/></linearGradient><linearGradient id="eBjVu4Kxop616-fill" x1="335.928073" y1="500.762405" x2="270.886409" y2="467.621086" spreadMethod="pad" gradientUnits="userSpaceOnUse" gradientTransform="translate(0 0)"><stop id="eBjVu4Kxop616-fill-0" offset="38.22%" stop-color="#040000"/><stop id="eBjVu4Kxop616-fill-1" offset="51.25%" stop-color="#080404"/><stop id="eBjVu4Kxop616-fill-2" offset="65.26%" stop-color="#141111"/><stop id="eBjVu4Kxop616-fill-3" offset="79.74%" stop-color="#292627"/><stop id="eBjVu4Kxop616-fill-4" offset="94.45%" stop-color="#454445"/><stop id="eBjVu4Kxop616-fill-5" offset="100%" stop-color="#525152"/></linearGradient><linearGradient id="eBjVu4Kxop618-fill" x1="369.591034" y1="619.694306" x2="375.880834" y2="499.386581" spreadMethod="pad" gradientUnits="userSpaceOnUse" gradientTransform="translate(0 0)"><stop id="eBjVu4Kxop618-fill-0" offset="38.22%" stop-color="#040000"/><stop id="eBjVu4Kxop618-fill-1" offset="51.25%" stop-color="#080404"/><stop id="eBjVu4Kxop618-fill-2" offset="65.26%" stop-color="#141111"/><stop id="eBjVu4Kxop618-fill-3" offset="79.74%" stop-color="#292627"/><stop id="eBjVu4Kxop618-fill-4" offset="94.45%" stop-color="#454445"/><stop id="eBjVu4Kxop618-fill-5" offset="100%" stop-color="#525152"/></linearGradient><radialGradient id="eBjVu4Kxop621-fill" cx="0" cy="0" r="234.1653" spreadMethod="pad" gradientUnits="userSpaceOnUse" gradientTransform="matrix(1.0504 0.4626 -0.5606 1.273 336.339616 345.26898)"><stop id="eBjVu4Kxop621-fill-0" offset="64.25%" stop-color="#f4cea8"/><stop id="eBjVu4Kxop621-fill-1" offset="72.46%" stop-color="#f2caa3"/><stop id="eBjVu4Kxop621-fill-2" offset="82.57%" stop-color="#edbd94"/><stop id="eBjVu4Kxop621-fill-3" offset="93.65%" stop-color="#e3a87b"/><stop id="eBjVu4Kxop621-fill-4" offset="100%" stop-color="#dd9969"/></radialGradient><radialGradient id="eBjVu4Kxop622-fill" cx="0" cy="0" r="39.8182" spreadMethod="pad" gradientUnits="userSpaceOnUse" gradientTransform="matrix(1.0504 0.4626 -0.5606 1.273 255.405389 321.337981)"><stop id="eBjVu4Kxop622-fill-0" offset="25.45%" stop-color="#e99c60"/><stop id="eBjVu4Kxop622-fill-1" offset="75.76%" stop-color="#f4cea8"/></radialGradient><radialGradient id="eBjVu4Kxop625-fill" cx="0" cy="0" r="268.564" spreadMethod="pad" gradientUnits="userSpaceOnUse" gradientTransform="matrix(0.7632 0.6461 -0.8471 1.0006 367.340971 269.392942)"><stop id="eBjVu4Kxop625-fill-0" offset="64.25%" stop-color="#f4cea8"/><stop id="eBjVu4Kxop625-fill-1" offset="72.46%" stop-color="#f2caa3"/><stop id="eBjVu4Kxop625-fill-2" offset="82.57%" stop-color="#edbd94"/><stop id="eBjVu4Kxop625-fill-3" offset="93.65%" stop-color="#e3a87b"/><stop id="eBjVu4Kxop625-fill-4" offset="100%" stop-color="#dd9969"/></radialGradient><radialGradient id="eBjVu4Kxop627-fill" cx="0" cy="0" r="109.8607" spreadMethod="pad" gradientUnits="userSpaceOnUse" gradientTransform="matrix(0.921 0.3895 -0.3895 0.921 373.022915 377.441157)"><stop id="eBjVu4Kxop627-fill-0" offset="64.25%" stop-color="#f4cea8"/><stop id="eBjVu4Kxop627-fill-1" offset="76.29%" stop-color="#f3c9a3"/><stop id="eBjVu4Kxop627-fill-2" offset="91.1%" stop-color="#f0ba94"/><stop id="eBjVu4Kxop627-fill-3" offset="100%" stop-color="#edae87"/></radialGradient><linearGradient id="eBjVu4Kxop630-fill" x1="310.354065" y1="420.5051" x2="408.013621" y2="440.553423" spreadMethod="pad" gradientUnits="userSpaceOnUse" gradientTransform="translate(0 0)"><stop id="eBjVu4Kxop630-fill-0" offset="0%" stop-color="#f2a188"/><stop id="eBjVu4Kxop630-fill-1" offset="33.74%" stop-color="#e9896c"/><stop id="eBjVu4Kxop630-fill-2" offset="66.84%" stop-color="#e17655"/></linearGradient><radialGradient id="eBjVu4Kxop631-fill" cx="0" cy="0" r="28.4129" spreadMethod="pad" gradientUnits="userSpaceOnUse" gradientTransform="matrix(0.9996 0.0277 -0.0277 0.9996 362.59917 426.452033)"><stop id="eBjVu4Kxop631-fill-0" offset="0%" stop-color="#fff"/><stop id="eBjVu4Kxop631-fill-1" offset="36.23%" stop-color="#fafcfb"/><stop id="eBjVu4Kxop631-fill-2" offset="75.19%" stop-color="#edf1f1"/><stop id="eBjVu4Kxop631-fill-3" offset="100%" stop-color="#e0e8e7"/></radialGradient><radialGradient id="eBjVu4Kxop632-fill" cx="0" cy="0" r="31.4831" spreadMethod="pad" gradientUnits="userSpaceOnUse" gradientTransform="matrix(0.9996 0.0277 -0.0277 0.9996 363.246691 437.88187)"><stop id="eBjVu4Kxop632-fill-0" offset="0%" stop-color="#fff"/><stop id="eBjVu4Kxop632-fill-1" offset="36.23%" stop-color="#fafcfb"/><stop id="eBjVu4Kxop632-fill-2" offset="75.19%" stop-color="#edf1f1"/><stop id="eBjVu4Kxop632-fill-3" offset="100%" stop-color="#e0e8e7"/></radialGradient><radialGradient id="eBjVu4Kxop636-fill" cx="0" cy="0" r="111.6704" spreadMethod="pad" gradientUnits="userSpaceOnUse" gradientTransform="matrix(0.9742 0.2256 -0.235 1.0146 410.835326 296.947154)"><stop id="eBjVu4Kxop636-fill-0" offset="0%" stop-color="#2b1c08"/><stop id="eBjVu4Kxop636-fill-1" offset="29.25%" stop-color="#281a07"/><stop id="eBjVu4Kxop636-fill-2" offset="50.33%" stop-color="#1e1406"/><stop id="eBjVu4Kxop636-fill-3" offset="69.24%" stop-color="#0e0903"/><stop id="eBjVu4Kxop636-fill-4" offset="80.61%" stop-color="#000"/></radialGradient><radialGradient id="eBjVu4Kxop637-fill" cx="0" cy="0" r="15.5637" spreadMethod="pad" gradientUnits="userSpaceOnUse" gradientTransform="matrix(-1 0 0 1 329.6962 301.944)"><stop id="eBjVu4Kxop637-fill-0" offset="0%" stop-color="#2b1c08"/><stop id="eBjVu4Kxop637-fill-1" offset="29.25%" stop-color="#281a07"/><stop id="eBjVu4Kxop637-fill-2" offset="50.33%" stop-color="#1e1406"/><stop id="eBjVu4Kxop637-fill-3" offset="69.24%" stop-color="#0e0903"/><stop id="eBjVu4Kxop637-fill-4" offset="80.61%" stop-color="#000"/></radialGradient><radialGradient id="eBjVu4Kxop638-fill" cx="0" cy="0" r="17.3554" spreadMethod="pad" gradientUnits="userSpaceOnUse" gradientTransform="matrix(-1 0 0 1 411.3037 329.1154)"><stop id="eBjVu4Kxop638-fill-0" offset="0%" stop-color="#2b1c08"/><stop id="eBjVu4Kxop638-fill-1" offset="29.25%" stop-color="#281a07"/><stop id="eBjVu4Kxop638-fill-2" offset="50.33%" stop-color="#1e1406"/><stop id="eBjVu4Kxop638-fill-3" offset="69.24%" stop-color="#0e0903"/><stop id="eBjVu4Kxop638-fill-4" offset="80.61%" stop-color="#000"/></radialGradient><linearGradient id="eBjVu4Kxop641-fill" x1="379.664736" y1="410.015431" x2="401.29491" y2="343.394775" spreadMethod="pad" gradientUnits="userSpaceOnUse" gradientTransform="translate(0 0)"><stop id="eBjVu4Kxop641-fill-0" offset="60.57%" stop-color="#f4cea8"/><stop id="eBjVu4Kxop641-fill-1" offset="69.22%" stop-color="#f3c9a3"/><stop id="eBjVu4Kxop641-fill-2" offset="79.88%" stop-color="#f1bc94"/><stop id="eBjVu4Kxop641-fill-3" offset="91.56%" stop-color="#eda77b"/><stop id="eBjVu4Kxop641-fill-4" offset="100%" stop-color="#e99364"/></linearGradient><radialGradient id="eBjVu4Kxop642-fill" cx="0" cy="0" r="23.1801" spreadMethod="pad" gradientUnits="userSpaceOnUse" gradientTransform="matrix(-0.9511 -0.3088 -0.3036 0.9353 393.297898 368.019016)"><stop id="eBjVu4Kxop642-fill-0" offset="0%" stop-color="#fff"/><stop id="eBjVu4Kxop642-fill-1" offset="36.23%" stop-color="#fafcfb"/><stop id="eBjVu4Kxop642-fill-2" offset="75.19%" stop-color="#edf1f1"/><stop id="eBjVu4Kxop642-fill-3" offset="100%" stop-color="#e0e8e7"/></radialGradient><linearGradient id="eBjVu4Kxop645-fill" x1="405.669894" y1="373.350617" x2="373.661384" y2="362.9582" spreadMethod="pad" gradientUnits="userSpaceOnUse" gradientTransform="translate(0 0)"><stop id="eBjVu4Kxop645-fill-0" offset="0%" stop-color="#74380e"/><stop id="eBjVu4Kxop645-fill-1" offset="0%" stop-color="#7b4119"/><stop id="eBjVu4Kxop645-fill-2" offset="17.2%" stop-color="#8a5230"/><stop id="eBjVu4Kxop645-fill-3" offset="30.06%" stop-color="#945f41"/><stop id="eBjVu4Kxop645-fill-4" offset="44.25%" stop-color="#9a674b"/><stop id="eBjVu4Kxop645-fill-5" offset="62.36%" stop-color="#9c694e"/><stop id="eBjVu4Kxop645-fill-6" offset="72.46%" stop-color="#9f6c51"/><stop id="eBjVu4Kxop645-fill-7" offset="80.57%" stop-color="#a7755b"/><stop id="eBjVu4Kxop645-fill-8" offset="87.99%" stop-color="#b4846c"/><stop id="eBjVu4Kxop645-fill-9" offset="94.95%" stop-color="#c79a84"/><stop id="eBjVu4Kxop645-fill-10" offset="100%" stop-color="#d9ae9a"/></linearGradient><linearGradient id="eBjVu4Kxop652-fill" x1="305.214572" y1="385.840464" x2="326.842276" y2="319.227418" spreadMethod="pad" gradientUnits="userSpaceOnUse" gradientTransform="translate(0 0)"><stop id="eBjVu4Kxop652-fill-0" offset="60.57%" stop-color="#f4cea8"/><stop id="eBjVu4Kxop652-fill-1" offset="69.22%" stop-color="#f3c9a3"/><stop id="eBjVu4Kxop652-fill-2" offset="79.88%" stop-color="#f1bc94"/><stop id="eBjVu4Kxop652-fill-3" offset="91.56%" stop-color="#eda77b"/><stop id="eBjVu4Kxop652-fill-4" offset="100%" stop-color="#e99364"/></linearGradient><radialGradient id="eBjVu4Kxop653-fill" cx="0" cy="0" r="23.1816" spreadMethod="pad" gradientUnits="userSpaceOnUse" gradientTransform="matrix(-0.9511 -0.3088 -0.3036 0.9353 318.845241 343.850109)"><stop id="eBjVu4Kxop653-fill-0" offset="0%" stop-color="#fff"/><stop id="eBjVu4Kxop653-fill-1" offset="36.23%" stop-color="#fafcfb"/><stop id="eBjVu4Kxop653-fill-2" offset="75.19%" stop-color="#edf1f1"/><stop id="eBjVu4Kxop653-fill-3" offset="100%" stop-color="#e0e8e7"/></radialGradient><linearGradient id="eBjVu4Kxop656-fill" x1="328.817937" y1="349.179739" x2="296.810284" y2="338.7876" spreadMethod="pad" gradientUnits="userSpaceOnUse" gradientTransform="translate(0 0)"><stop id="eBjVu4Kxop656-fill-0" offset="0%" stop-color="#74380e"/><stop id="eBjVu4Kxop656-fill-1" offset="0%" stop-color="#7b4119"/><stop id="eBjVu4Kxop656-fill-2" offset="17.2%" stop-color="#8a5230"/><stop id="eBjVu4Kxop656-fill-3" offset="30.06%" stop-color="#945f41"/><stop id="eBjVu4Kxop656-fill-4" offset="44.25%" stop-color="#9a674b"/><stop id="eBjVu4Kxop656-fill-5" offset="62.36%" stop-color="#9c694e"/><stop id="eBjVu4Kxop656-fill-6" offset="72.46%" stop-color="#9f6c51"/><stop id="eBjVu4Kxop656-fill-7" offset="80.57%" stop-color="#a7755b"/><stop id="eBjVu4Kxop656-fill-8" offset="87.99%" stop-color="#b4846c"/><stop id="eBjVu4Kxop656-fill-9" offset="94.95%" stop-color="#c79a84"/><stop id="eBjVu4Kxop656-fill-10" offset="100%" stop-color="#d9ae9a"/></linearGradient><linearGradient id="eBjVu4Kxop664-fill" x1="538.317457" y1="300.600816" x2="322.9062" y2="214.459513" spreadMethod="pad" gradientUnits="userSpaceOnUse" gradientTransform="translate(0 0)"><stop id="eBjVu4Kxop664-fill-0" offset="0%" stop-color="#7b7a7a"/><stop id="eBjVu4Kxop664-fill-1" offset="100%" stop-color="#1b1c1c"/></linearGradient><linearGradient id="eBjVu4Kxop665-fill" x1="521.495562" y1="342.664187" x2="307.066843" y2="256.915794" spreadMethod="pad" gradientUnits="userSpaceOnUse" gradientTransform="translate(0 0)"><stop id="eBjVu4Kxop665-fill-0" offset="0%" stop-color="#000"/><stop id="eBjVu4Kxop665-fill-1" offset="100%" stop-color="#1f1e1f"/></linearGradient><linearGradient id="eBjVu4Kxop666-fill" x1="429.835021" y1="257.35264" x2="404.252117" y2="321.327125" spreadMethod="pad" gradientUnits="userSpaceOnUse" gradientTransform="translate(0 0)"><stop id="eBjVu4Kxop666-fill-0" offset="0%" stop-color="#7b7a7a"/><stop id="eBjVu4Kxop666-fill-1" offset="100%" stop-color="#1b1c1c"/></linearGradient><linearGradient id="eBjVu4Kxop667-fill" x1="509.844516" y1="348.345324" x2="505.765801" y2="346.714277" spreadMethod="pad" gradientUnits="userSpaceOnUse" gradientTransform="translate(0 0)"><stop id="eBjVu4Kxop667-fill-0" offset="0%" stop-color="#000"/><stop id="eBjVu4Kxop667-fill-1" offset="100%" stop-color="#1f1e1f"/></linearGradient><linearGradient id="eBjVu4Kxop668-fill" x1="489.34532" y1="335.196869" x2="485.266512" y2="333.565785" spreadMethod="pad" gradientUnits="userSpaceOnUse" gradientTransform="translate(0 0)"><stop id="eBjVu4Kxop668-fill-0" offset="0%" stop-color="#000"/><stop id="eBjVu4Kxop668-fill-1" offset="100%" stop-color="#1f1e1f"/></linearGradient><linearGradient id="eBjVu4Kxop669-fill" x1="467.991651" y1="324.181939" x2="463.912472" y2="322.550707" spreadMethod="pad" gradientUnits="userSpaceOnUse" gradientTransform="translate(0 0)"><stop id="eBjVu4Kxop669-fill-0" offset="0%" stop-color="#000"/><stop id="eBjVu4Kxop669-fill-1" offset="100%" stop-color="#1f1e1f"/></linearGradient><linearGradient id="eBjVu4Kxop670-fill" x1="446.211619" y1="314.234284" x2="442.132347" y2="312.603014" spreadMethod="pad" gradientUnits="userSpaceOnUse" gradientTransform="translate(0 0)"><stop id="eBjVu4Kxop670-fill-0" offset="0%" stop-color="#000"/><stop id="eBjVu4Kxop670-fill-1" offset="100%" stop-color="#1f1e1f"/></linearGradient><linearGradient id="eBjVu4Kxop671-fill" x1="424.430863" y1="304.287092" x2="420.352055" y2="302.656009" spreadMethod="pad" gradientUnits="userSpaceOnUse" gradientTransform="translate(0 0)"><stop id="eBjVu4Kxop671-fill-0" offset="0%" stop-color="#000"/><stop id="eBjVu4Kxop671-fill-1" offset="100%" stop-color="#1f1e1f"/></linearGradient><linearGradient id="eBjVu4Kxop672-fill" x1="401.79775" y1="296.473519" x2="397.718478" y2="294.84225" spreadMethod="pad" gradientUnits="userSpaceOnUse" gradientTransform="translate(0 0)"><stop id="eBjVu4Kxop672-fill-0" offset="0%" stop-color="#000"/><stop id="eBjVu4Kxop672-fill-1" offset="100%" stop-color="#1f1e1f"/></linearGradient><linearGradient id="eBjVu4Kxop673-fill" x1="379.163412" y1="288.660857" x2="375.084233" y2="287.029624" spreadMethod="pad" gradientUnits="userSpaceOnUse" gradientTransform="translate(0 0)"><stop id="eBjVu4Kxop673-fill-0" offset="0%" stop-color="#000"/><stop id="eBjVu4Kxop673-fill-1" offset="100%" stop-color="#1f1e1f"/></linearGradient><linearGradient id="eBjVu4Kxop674-fill" x1="356.957332" y1="279.780493" x2="352.877688" y2="278.149075" spreadMethod="pad" gradientUnits="userSpaceOnUse" gradientTransform="translate(0 0)"><stop id="eBjVu4Kxop674-fill-0" offset="0%" stop-color="#000"/><stop id="eBjVu4Kxop674-fill-1" offset="100%" stop-color="#1f1e1f"/></linearGradient><linearGradient id="eBjVu4Kxop675-fill" x1="333.89624" y1="273.034194" x2="329.817525" y2="271.403147" spreadMethod="pad" gradientUnits="userSpaceOnUse" gradientTransform="translate(0 0)"><stop id="eBjVu4Kxop675-fill-0" offset="0%" stop-color="#000"/><stop id="eBjVu4Kxop675-fill-1" offset="100%" stop-color="#1f1e1f"/></linearGradient><linearGradient id="eBjVu4Kxop676-fill" x1="309.983256" y1="268.421699" x2="305.903984" y2="266.79043" spreadMethod="pad" gradientUnits="userSpaceOnUse" gradientTransform="translate(0 0)"><stop id="eBjVu4Kxop676-fill-0" offset="0%" stop-color="#000"/><stop id="eBjVu4Kxop676-fill-1" offset="100%" stop-color="#1f1e1f"/></linearGradient><radialGradient id="eBjVu4Kxop681-fill" cx="0" cy="0" r="52.4271" spreadMethod="pad" gradientUnits="userSpaceOnUse" gradientTransform="matrix(0.7422 -0.3753 -0.3424 -1.0102 294.544877 258.526064)"><stop id="eBjVu4Kxop681-fill-0" offset="0%" stop-color="#fbdebf"/><stop id="eBjVu4Kxop681-fill-1" offset="49.58%" stop-color="#f4cea8"/><stop id="eBjVu4Kxop681-fill-2" offset="94.96%" stop-color="#eaa366"/></radialGradient><radialGradient id="eBjVu4Kxop682-fill" cx="0" cy="0" r="55.1567" spreadMethod="pad" gradientUnits="userSpaceOnUse" gradientTransform="matrix(0.7422 -0.3753 -0.3424 -1.0102 291.97538 242.662343)"><stop id="eBjVu4Kxop682-fill-0" offset="0%" stop-color="#fbdebf"/><stop id="eBjVu4Kxop682-fill-1" offset="49.58%" stop-color="#f4cea8"/><stop id="eBjVu4Kxop682-fill-2" offset="94.96%" stop-color="#eaa366"/></radialGradient><radialGradient id="eBjVu4Kxop683-fill" cx="0" cy="0" r="33.6797" spreadMethod="pad" gradientUnits="userSpaceOnUse" gradientTransform="matrix(0.7422 -0.3753 -0.3424 -1.0102 295.456991 210.101569)"><stop id="eBjVu4Kxop683-fill-0" offset="0%" stop-color="#fbdebf"/><stop id="eBjVu4Kxop683-fill-1" offset="49.58%" stop-color="#f4cea8"/><stop id="eBjVu4Kxop683-fill-2" offset="94.96%" stop-color="#eaa366"/></radialGradient><radialGradient id="eBjVu4Kxop684-fill" cx="0" cy="0" r="24.8959" spreadMethod="pad" gradientUnits="userSpaceOnUse" gradientTransform="matrix(0.7422 -0.3753 -0.3424 -1.0102 296.026712 191.612688)"><stop id="eBjVu4Kxop684-fill-0" offset="0%" stop-color="#fbdebf"/><stop id="eBjVu4Kxop684-fill-1" offset="49.58%" stop-color="#f4cea8"/><stop id="eBjVu4Kxop684-fill-2" offset="94.96%" stop-color="#eaa366"/></radialGradient><linearGradient id="eBjVu4Kxop688-fill" x1="319.955931" y1="607.500777" x2="355.586" y2="497.570293" spreadMethod="pad" gradientUnits="userSpaceOnUse" gradientTransform="translate(0 0)"><stop id="eBjVu4Kxop688-fill-0" offset="38.22%" stop-color="#040000"/><stop id="eBjVu4Kxop688-fill-1" offset="51.25%" stop-color="#080404"/><stop id="eBjVu4Kxop688-fill-2" offset="65.26%" stop-color="#141111"/><stop id="eBjVu4Kxop688-fill-3" offset="79.74%" stop-color="#292627"/><stop id="eBjVu4Kxop688-fill-4" offset="94.45%" stop-color="#454445"/><stop id="eBjVu4Kxop688-fill-5" offset="100%" stop-color="#525152"/></linearGradient><radialGradient id="eBjVu4Kxop690-fill" cx="0" cy="0" r="52.4284" spreadMethod="pad" gradientUnits="userSpaceOnUse" gradientTransform="matrix(0.7422 0.3753 -0.3424 1.0102 290.909181 535.329686)"><stop id="eBjVu4Kxop690-fill-0" offset="0%" stop-color="#fbdebf"/><stop id="eBjVu4Kxop690-fill-1" offset="49.58%" stop-color="#f4cea8"/><stop id="eBjVu4Kxop690-fill-2" offset="94.96%" stop-color="#eaa366"/></radialGradient><radialGradient id="eBjVu4Kxop691-fill" cx="0" cy="0" r="55.156" spreadMethod="pad" gradientUnits="userSpaceOnUse" gradientTransform="matrix(0.7422 0.3753 -0.3424 1.0102 288.337651 551.195811)"><stop id="eBjVu4Kxop691-fill-0" offset="0%" stop-color="#fbdebf"/><stop id="eBjVu4Kxop691-fill-1" offset="49.58%" stop-color="#f4cea8"/><stop id="eBjVu4Kxop691-fill-2" offset="94.96%" stop-color="#eaa366"/></radialGradient><radialGradient id="eBjVu4Kxop692-fill" cx="0" cy="0" r="33.6805" spreadMethod="pad" gradientUnits="userSpaceOnUse" gradientTransform="matrix(0.7422 0.3753 -0.3424 1.0102 291.819422 583.7556)"><stop id="eBjVu4Kxop692-fill-0" offset="0%" stop-color="#fbdebf"/><stop id="eBjVu4Kxop692-fill-1" offset="49.58%" stop-color="#f4cea8"/><stop id="eBjVu4Kxop692-fill-2" offset="94.96%" stop-color="#eaa366"/></radialGradient><radialGradient id="eBjVu4Kxop693-fill" cx="0" cy="0" r="24.8971" spreadMethod="pad" gradientUnits="userSpaceOnUse" gradientTransform="matrix(0.7422 0.3753 -0.3424 1.0102 292.38916 602.242124)"><stop id="eBjVu4Kxop693-fill-0" offset="0%" stop-color="#fbdebf"/><stop id="eBjVu4Kxop693-fill-1" offset="49.58%" stop-color="#f4cea8"/><stop id="eBjVu4Kxop693-fill-2" offset="94.96%" stop-color="#eaa366"/></radialGradient></defs><g transform="matrix(1.637547 0 0 1.637547-412.973831-265.287212)"><g><g transform="matrix(.595977 0 0 0.963741 150.808859 19.477278)"><g><g><g><path d="M325.2,594.4c-18.4-6.3-37.7-14.4-57.2-24.3-20.4-10.4-39.1-21.8-55.6-33.5c0,0,8.2-94.4,34.2-103.3c15.8-5.4,48.1,30.4,67.3,40.2c20.4,10.4,69.5,15.8,74.7,32.2c8.4,26.2-63.4,88.7-63.4,88.7Z" fill="url(#eBjVu4Kxop68-fill)"/></g></g><g><path d="M325.2,594.4c-11.2-3.8-22.7-8.3-34.4-13.5l-45-22.9c-11.9-6.9-23-14.1-33.3-21.4c0,0,.4-4.7,1.3-12.1L334.5,586c-5.6,5.2-9.3,8.4-9.3,8.4Z" fill="url(#eBjVu4Kxop610-fill)"/><path d="M346.3,574.4L216.1,508.1c.8-5,1.7-10.4,2.9-15.8l138.4,70.5c-3.7,4.1-7.5,8-11.1,11.6Z" fill="url(#eBjVu4Kxop611-fill)"/><path d="M368.7,549.7L222.8,475.4c1.4-5.2,2.9-10.2,4.6-15L378,537.2c-2.7,4.1-5.9,8.3-9.3,12.5Z" fill="url(#eBjVu4Kxop612-fill)"/><path d="M292.3,458.2l47.4,24.2c-10-2.8-19.4-5.6-25.9-8.9-6.1-3.2-13.6-9-21.5-15.3Z" fill="#14a358"/><path d="M292.3,458.2c7.9,6.3,15.4,12.1,21.6,15.3c6.5,3.3,15.9,6.1,25.9,8.9l49.3,25.1c.8,4.5-.4,9.9-3,15.8l-152-77.5c3.2-5.5,6.8-9.7,10.9-11.8l47.3,24.2Z" fill="url(#eBjVu4Kxop614-fill)"/></g><path d="M278.7,455.5c-8.4,16.5-1.8,36.7,14.6,45.1c16.5,8.4,35.7,1.3,45.1-14.6c17-29-18.1-46.8-14.6-45.1-16.5-8.4-36.7-1.9-45.1,14.6Z" fill="#ecbe93"/><path d="M294.4,492.6c15.1,7.7,33.5,1.9,41.5-13c3.1.9,6.3,1.8,9.4,2.7-.2.4-.3.7-.5,1.1-10.2,20-34.7,28-54.7,17.8s-20.5-30.9-10.3-50.9c.2-.5.5-.9.7-1.4c2.5,2,5.1,4,7.7,6-7.6,15.2-9,29.9,6.2,37.7Z" fill="url(#eBjVu4Kxop616-fill)"/></g></g></g><g><path d="M370.8,510.6c-4.8,8.1-18.3,37.7-17.5,59.4.8,21.5,4.5,19.6,12.8,22.1c13.8,4.1,21.8-27.4,26.5-54.7c5.3-31.3-9.1-48.4-21.8-26.8Z" fill="url(#eBjVu4Kxop618-fill)"/></g><g><g><path d="M306.9,352.1c-7.1,16-24.4,23.9-38.6,17.6-14.3-6.3-20.2-24.4-13.1-40.4c7-16,24.4-23.9,38.6-17.6c14.3,6.3,20.1,24.3,13.1,40.4Z" fill="url(#eBjVu4Kxop621-fill)"/><path d="M287.5,324.8c-11.1-15.9-42.8,13-16,36.3c12.3-25.7,16-36.3,16-36.3Z" fill="url(#eBjVu4Kxop622-fill)"/><path d="M263.1,337.8c-.3.8-.6,1.6-.9,2.4-.1-3,.4-6.2,1.8-9.3c3.8-8.6,12.2-13.2,18.8-10.3c2,.9,3.6,2.4,4.7,4.2-8.8-3.5-19.6,2.2-24.4,13Z" fill="#a67444"/></g><g><path d="M512.1,417.6c-12.2,14.4-31.8,18-43.7,7.9s-11.7-30,.6-44.4c12.2-14.4,31.8-18,43.7-7.9s11.6,29.9-.6,44.4Z" fill="url(#eBjVu4Kxop625-fill)"/><path d="M500.4,415.8c-.6.7-1.2,1.4-1.9,2c2.9-1.3,5.7-3.5,8.1-6.3c6.6-7.7,7.4-17.8,1.9-22.4-1.7-1.4-3.7-2.1-6-2.3c7,6.4,6.1,19.2-2.1,29Z" fill="#a67444"/></g><path d="M478.4,400.2c13-32.1,24.5-89.4,10.6-96.9-14.4-7.8-57.5-14.9-88.8-24.7-31.4-9.5-53-13.9-68.8-16.3-27.5-4.1-45,42.4-52.8,75.9-8.5,36.5-13.3,63.9-11,79.6c1.6,10.9,22.4,46,47.5,58.3c15.9,7.8,81.7,16.8,106.4,2.9c22.3-12.4,42.9-44.3,56.9-78.8Z" fill="url(#eBjVu4Kxop627-fill)"/><path d="M350.3,397.5c0,0-7.4.5-14.9-2.4-3.6-1.4-6.6-2.7-8.4-5.2-1.8-2.4-1.1-9.6-1.1-9.6s-12.1,13.4,5.2,21.3c12.3,5.6,19.2-4.1,19.2-4.1Z" fill="#ecbe93"/><g id="eBjVu4Kxop629_tr" transform="translate(361.108185,431.414917) rotate(0)"><g transform="translate(-361.108185,-431.414917)"><path d="M312.4,410.5c0,0,22.8,17.5,56.6,11.6c33.8-5.8,35.2-4.2,40.2,6c4.9,10.3-20.4,26.6-41,23.7-20.5-2.8-53-14.3-55.8-41.3Z" fill="url(#eBjVu4Kxop630-fill)"/><path d="M324,416.9c0,0-1.2,4.6,1.9,6.8s37.9,21.7,71.2,6.8c0,0,4.7-3.5,4.8-10.9c0,0-11-3.8-20.6-.6s-31.1,8.3-57.3-2.1Z" fill="url(#eBjVu4Kxop631-fill)"/><path d="M321.2,430.2c0,0,1.2-4.4,3.6-6.7s69.2,2.5,74.9,8s5.7,8,5.7,8-26,29-73.4-.2c-3.4-2.2-7-4.8-10.8-9.1Z" fill="url(#eBjVu4Kxop632-fill)"/></g></g><path d="M435.4,415.4c-1.4,5.8-11,8.3-21.3,5.8-10.4-2.6-17.6-9.3-16.2-15.1s11-8.3,21.3-5.8c10.4,2.5,17.6,9.3,16.2,15.1Z" opacity="0.5" fill="#eeb29a"/><path d="M304.1,377.8c-1.3,5.8-9.4,8.4-18.2,6-8.8-2.5-14.9-9.2-13.6-14.9c1.3-5.8,9.4-8.4,18.2-6s14.9,9.1,13.6,14.9Z" opacity="0.5" fill="#eeb29a"/><g><path d="M284.4,317.1c0,0-11.8-45.4,60.2-103c0,0,0,0,4.6,13c0,0,57.9-24.5,55.9-5c0,0,10.6-11.5,10.2-26.2c0,0,37,26.3,37.2,51.9c0,0,.2-16.3-.2-25.6c0,0,20.4,15.1,30.3,41.6c25.8,7.5,40,36.6,42.7,62.1c1.5,12.2,1.3,31-12.6,47.3-18.3-9.7-32.8,18-36.7,32.8-2.3,8.5-15.9,4.5-15.9,4.5s13.1-32.1-5-56.2c0,0,14.6-.7,11.7-12.1-2.8-11-19.2-26.5-26.4-34.5-7.3-8-34.7-6.9-41.9-6.4l22.2-8.7c0,0-16.7-2.9-29,2.9c0,0,7.1-8.9,8.1-12.9c0,0-25.1,11.8-36.1,8.5-13.6-4.1-22.6-17.9-23.6-22.3-1-4.5-7.8,9.1-1.5,16.9c0,0-11.9-7.5-18.9-3.9-17.8,9.1-24.4,20.9-35.3,35.3Z" fill="url(#eBjVu4Kxop636-fill)"/></g><path d="M350,303c-.3-1.9-.9-7.1-3.6-8.7l-.8,4.5-4-5.3.4,5.3c0,0-9.9-7.9-27.3,1.6c0,0-3.6,2.4-5.4,5.6c0,0,24.4-9,38.6,4.2c0,.1,2.7-3.6,2.1-7.2Z" fill="url(#eBjVu4Kxop637-fill)"/><path d="M395,318.4c1.4-1.4,5.1-5.3,8.5-5l-2,4.2l6.8-2-3.6,4.1c0,0,13.8-.7,23.9,17.4c0,0,1.9,4.1,1.5,7.7c0,0-16.7-21.8-37.7-19.3.1,0-.1-4.5,2.6-7.1Z" fill="url(#eBjVu4Kxop638-fill)"/><g><g><path d="M366.2,359.2c-4.6,14.2,3.8,29.6,18.8,34.4c15,4.9,30.8-2.7,35.4-16.9s-3.8-29.6-18.8-34.4c-14.9-4.8-30.8,2.8-35.4,16.9Z" fill="url(#eBjVu4Kxop641-fill)"/><path d="M370.8,360.7c-3.8,11.7,3.2,24.5,15.6,28.6c12.4,4,25.5-2.2,29.4-14c3.8-11.7-3.1-24.5-15.6-28.6-12.4-4-25.5,2.3-29.4,14Z" fill="url(#eBjVu4Kxop642-fill)"/></g><g id="eBjVu4Kxop643_to" transform="translate(389.699997,368.224808)"><g transform="translate(-389.699997,-368.224808)"><g><path d="M373.7,363c-2.7,8.4,2.2,17.5,11.1,20.4c8.8,2.9,18.2-1.6,20.9-10s-2.2-17.5-11.1-20.3c-8.9-3-18.2,1.5-20.9,9.9Z" fill="url(#eBjVu4Kxop645-fill)"/><path d="M376.6,365.1c-2.2,6.7,1.8,13.9,8.8,16.2s14.5-1.3,16.6-7.9c2.2-6.6-1.8-13.9-8.8-16.2s-14.4,1.3-16.6,7.9Z" opacity="0.7" fill="#060001"/></g><path d="M383.5,364.6c-.2.4-.4.8-.6,1.3-1.2,3.6.8,7.5,4.5,8.7s7.6-.8,8.8-4.4c0-.1,0-.2.1-.3c2.6,1.6,5,3.3,7.1,4.9-3.6,6.7-11.3,10.2-18.4,7.9-7.7-2.5-11.9-10.9-9.8-19.1c2.9,0,5.6.4,8.3,1Z" opacity="0.25" fill="#fff"/><path d="M383.9,368.4c-.8,2.6.6,5.3,3.2,6.2c2.6.8,5.4-.6,6.2-3.1.8-2.6-.6-5.3-3.2-6.2s-5.4.5-6.2,3.1Zm.8,1.6c.7-.6,1.9-.3,2.7.6.7.9.7,2.1,0,2.7s-1.9.3-2.6-.6c-.9-.9-.9-2.1-.1-2.7Z" opacity="0.35" fill="#060001"/><path d="M395.5,358.9c-2.6,1.2-3.5,4.9-2,8.3s4.8,5.2,7.4,4s3.5-4.9,2-8.3-4.8-5.2-7.4-4Z" fill="#fff"/></g></g></g><g><g><path d="M291.8,335.1c-4.6,14.2,3.8,29.6,18.8,34.4c15,4.9,30.8-2.7,35.4-16.9s-3.8-29.6-18.8-34.4c-15-4.9-30.8,2.7-35.4,16.9Z" fill="url(#eBjVu4Kxop652-fill)"/><path d="M296.4,336.6c-3.8,11.7,3.2,24.5,15.6,28.6c12.4,4,25.6-2.2,29.4-14c3.8-11.7-3.1-24.5-15.6-28.6-12.5-4-25.6,2.2-29.4,14Z" fill="url(#eBjVu4Kxop653-fill)"/></g><g id="eBjVu4Kxop654_to" transform="translate(312.800003,344.044449)"><g transform="translate(-312.800003,-344.044449)"><g><path d="M296.8,338.8c-2.7,8.4,2.2,17.5,11.1,20.4c8.8,2.9,18.2-1.6,20.9-10s-2.2-17.5-11.1-20.3c-8.8-2.9-18.2,1.5-20.9,9.9Z" fill="url(#eBjVu4Kxop656-fill)"/><path d="M299.7,341c-2.2,6.7,1.8,13.9,8.8,16.2s14.5-1.3,16.6-7.9c2.2-6.6-1.8-13.9-8.8-16.2s-14.4,1.2-16.6,7.9Z" opacity="0.7" fill="#060001"/></g><path d="M306.6,340.4c-.2.4-.4.8-.6,1.3-1.2,3.6.8,7.5,4.5,8.7s7.6-.8,8.8-4.4c0-.1,0-.2.1-.3c2.6,1.6,5,3.3,7.1,4.9-3.6,6.7-11.3,10.2-18.4,7.9-7.7-2.5-11.9-10.9-9.8-19.1c2.9,0,5.7.4,8.3,1Z" opacity="0.25" fill="#fff"/><path d="M307,344.2c-.8,2.6.6,5.3,3.2,6.2c2.6.8,5.4-.6,6.2-3.1.8-2.6-.6-5.3-3.2-6.2-2.5-.9-5.3.5-6.2,3.1Zm.8,1.6c.7-.6,1.9-.3,2.7.6.7.9.7,2.1,0,2.7s-1.9.3-2.6-.6c-.8-.9-.8-2.1-.1-2.7Z" opacity="0.35" fill="#060001"/><path d="M318.6,334.8c-2.6,1.2-3.5,4.9-2,8.3s4.8,5.2,7.4,4s3.5-4.9,2-8.3c-1.4-3.4-4.8-5.2-7.4-4Z" fill="#fff"/></g></g></g></g><path d="M274,327.9c-6.1,19.1,5.3,42.7,24.6,48.9c17.4,5.6,24.4.7,38.2-8.4c3.2-2.1,10.9-10,15-8.7c4.6,1.5,5.6,14.7,7,18.6c5.9,15.4,20.8,25.5,40.5,31.9c17.3,5.6,50.5-2.9,56.7-22c6.1-19.1-17.2-41.6-34.4-47.1-16.8-5.4-33.4-7.2-46.6-6.1-4.3.4-7.9,2.1-13.6.2-5.1-1.6-10.1-4.1-13.1-7-9.4-8.8-12.9-16-27.4-20.7-19.3-6-40.7,1.4-46.9,20.4Zm100.7,35.7c3.5-10.9,15.3-16.9,26.3-13.4c11,3.6,17.1,15.3,13.6,26.2s-15.3,16.9-26.4,13.4c-10.9-3.5-17-15.2-13.5-26.2Zm-78-25.6c3.5-10.9,15.3-16.9,26.4-13.4c11,3.6,17.1,15.3,13.6,26.2s-15.3,16.9-26.4,13.4c-11-3.5-17.1-15.2-13.6-26.2Z" fill="#eb2a2b"/><g><g><path d="M515,359l6.5-16.2c21-52.4,9.2-113-55.5-138.9l-23.9-9.6c-63.7-25.5-115,9.9-136,62.3l-6.5,16.2L515,359Z" fill="url(#eBjVu4Kxop664-fill)"/><path d="M512.5,365.1L407.1,313.4L298.7,277.8l14.2-35.5c0,0,75.1,21,111.3,35.5c39.1,15.7,101.5,51.4,101.5,51.4l-13.2,35.9Z" fill="url(#eBjVu4Kxop665-fill)"/><path d="M515.9,371.4c0,0-67-36.7-108.9-53.5-39.9-16-40.2-14.8-118.2-37.4L303,245c0,0,81.3,22.6,116.9,36.9C464.6,299.8,530,335.8,530,335.8l-14.1,35.6Z" fill="url(#eBjVu4Kxop666-fill)"/></g><path d="M513.8,332.7c0,0-1.8,17.4-11.9,29.6c0,.1-.1-13.2,11.9-29.6Z" fill="url(#eBjVu4Kxop667-fill)"/><path d="M493.3,319.6c0,0-1.8,17.4-11.9,29.6c0,0-.1-13.3,11.9-29.6Z" fill="url(#eBjVu4Kxop668-fill)"/><path d="M471.9,308.6c0,0-1.8,17.4-11.9,29.6.1,0-.1-13.3,11.9-29.6Z" fill="url(#eBjVu4Kxop669-fill)"/><path d="M450.2,298.6c0,0-1.8,17.4-11.9,29.6c0,.1-.2-13.2,11.9-29.6Z" fill="url(#eBjVu4Kxop670-fill)"/><path d="M428.4,288.7c0,0-1.8,17.4-11.9,29.6c0,0-.2-13.3,11.9-29.6Z" fill="url(#eBjVu4Kxop671-fill)"/><path d="M405.8,280.9c0,0-1.8,17.4-11.9,29.6c0,0-.2-13.3,11.9-29.6Z" fill="url(#eBjVu4Kxop672-fill)"/><path d="M383.1,273.1c0,0-1.8,17.4-11.9,29.6.1,0-.1-13.3,11.9-29.6Z" fill="url(#eBjVu4Kxop673-fill)"/><path d="M360.9,264.2c0,0-1.8,17.4-11.9,29.6.1,0-.1-13.3,11.9-29.6Z" fill="url(#eBjVu4Kxop674-fill)"/><path d="M337.9,257.4c0,0-1.8,17.4-11.9,29.6c0,.1-.2-13.2,11.9-29.6Z" fill="url(#eBjVu4Kxop675-fill)"/><path d="M313.9,252.8c0,0-1.8,17.4-11.9,29.6.1.1-.1-13.3,11.9-29.6Z" fill="url(#eBjVu4Kxop676-fill)"/></g><g><g><g><path d="M295.7,163.3c-3.5,3.8-12.4,10.1-15.1,11.5-2.7,1.3-3.9,6.9-2,10.1-4.8,3.6-1.6,13.3-1.6,13.3s-8.6,2.9-5,10.9c-2,4.5-.3,22.4,11.3,24.1s16-58.8,12.4-69.9Z" opacity="0.2" fill="#060001"/><path d="M313.2,210.8c.9,9.8-.3,20.1-8.1,24.2s-31.3,1.9-27.2-12.7c3-11,22-7.3,22-7.3s12.4-13.7,13.3-4.2Z" fill="url(#eBjVu4Kxop681-fill)"/><path d="M313.1,194.8c1.4,8.1,2.3,22.3-12.6,23.3s-25.4.8-26.5-8.4s6.3-10.8,13.6-11.8s20.9-5.7,20.9-5.7s2.5-9.4,4.6,2.6Z" fill="url(#eBjVu4Kxop682-fill)"/><path d="M309.9,178.2c1.9,5.6,4.4,14.1-5.3,17.4s-24.6,10.2-26,.1c-1.4-10.2,6-11.8,10.8-13.1c4.7-1.3,16.6-16,20.5-4.4Z" fill="url(#eBjVu4Kxop683-fill)"/><path d="M298.7,162.3c6,6.6,6.2,10.5,2.5,16.1s-14.6,9.7-18.3,6.4.6-10.2,5.9-13.3c4-3.4,8.1-11.1,9.9-9.2Z" fill="url(#eBjVu4Kxop684-fill)"/></g></g></g><g id="eBjVu4Kxop685_tr" transform="translate(369.765778,574.4) rotate(0)"><g transform="translate(-369.765778,-574.4)"><g><g><path d="M330.6,565.4c0,0-41.4,1.2-47.4,2.9c6.1,5.2,6,32.6,3.6,48.3c33.3-7.2,81.8-14.1,89.1-29.3c9.8-24-45.3-21.9-45.3-21.9Z" fill="url(#eBjVu4Kxop688-fill)"/><path d="M292.1,630.5c-3.5-3.8-12.4-10.1-15.1-11.5-2.7-1.3-3.9-6.9-2-10.1-4.8-3.6-1.6-13.3-1.6-13.3s-8.6-2.9-5-10.9c-2-4.5-.3-22.4,11.3-24.1s16,58.8,12.4,69.9Z" opacity="0.2" fill="#060001"/><path d="M309.6,583c.9-9.8-.3-20.1-8.1-24.2s-31.3-1.9-27.2,12.7c3,11,22,7.3,22,7.3s12.4,13.8,13.3,4.2Z" fill="url(#eBjVu4Kxop690-fill)"/><path d="M309.5,599c1.4-8.1,2.3-22.3-12.6-23.3s-25.4-.8-26.5,8.4s6.3,10.8,13.6,11.8s20.9,5.7,20.9,5.7s2.5,9.5,4.6-2.6Z" fill="url(#eBjVu4Kxop691-fill)"/><path d="M306.3,615.6c1.9-5.6,4.4-14.1-5.3-17.4s-24.6-10.2-26-.1c-1.4,10.2,6,11.8,10.8,13.1c4.7,1.3,16.5,16.1,20.5,4.4Z" fill="url(#eBjVu4Kxop692-fill)"/><path d="M295.1,631.5c6-6.6,6.2-10.5,2.5-16.1s-14.6-9.7-18.3-6.4.6,10.2,5.9,13.3c4,3.5,8.1,11.2,9.9,9.2Z" fill="url(#eBjVu4Kxop693-fill)"/></g></g></g></g></g></svg>
